<mxfile host="65bd71144e">
    <diagram id="HpUwxvtieIS37iP2yzlN" name="PÃ¡gina-1">
        <mxGraphModel dx="748" dy="434" grid="1" gridSize="10" guides="1" tooltips="1" connect="1" arrows="1" fold="1" page="1" pageScale="1" pageWidth="827" pageHeight="1169" math="0" shadow="0">
            <root>
                <mxCell id="0"/>
                <mxCell id="1" parent="0"/>
                <mxCell id="41" value="" style="group" vertex="1" connectable="0" parent="1">
                    <mxGeometry width="560" height="320" as="geometry"/>
                </mxCell>
                <mxCell id="16" value="" style="endArrow=none;html=1;fontSize=10;exitX=1;exitY=0.5;exitDx=0;exitDy=0;entryX=0;entryY=0.5;entryDx=0;entryDy=0;startArrow=none;" edge="1" parent="41" source="33">
                    <mxGeometry width="50" height="50" relative="1" as="geometry">
                        <mxPoint x="300" y="210" as="sourcePoint"/>
                        <mxPoint x="370" y="155.78125" as="targetPoint"/>
                    </mxGeometry>
                </mxCell>
                <mxCell id="17" value="" style="group" vertex="1" connectable="0" parent="41">
                    <mxGeometry width="190" height="375" as="geometry"/>
                </mxCell>
                <mxCell id="2" value="" style="whiteSpace=wrap;html=1;" vertex="1" parent="17">
                    <mxGeometry width="190" height="363.28124999999943" as="geometry"/>
                </mxCell>
                <mxCell id="4" value="" style="endArrow=none;html=1;exitX=-0.002;exitY=0.137;exitDx=0;exitDy=0;exitPerimeter=0;" edge="1" parent="17" source="2">
                    <mxGeometry width="50" height="50" relative="1" as="geometry">
                        <mxPoint x="170" y="58.59374999999993" as="sourcePoint"/>
                        <mxPoint x="190" y="46.87499999999993" as="targetPoint"/>
                    </mxGeometry>
                </mxCell>
                <mxCell id="5" value="Contato" style="text;strokeColor=none;fillColor=none;html=1;fontSize=24;fontStyle=1;verticalAlign=middle;align=center;" vertex="1" parent="17">
                    <mxGeometry x="45" width="100" height="46.87499999999993" as="geometry"/>
                </mxCell>
                <mxCell id="6" value="- Nome: String" style="text;strokeColor=none;fillColor=none;html=1;fontSize=10;fontStyle=1;verticalAlign=middle;align=left;" vertex="1" parent="17">
                    <mxGeometry y="40.003749999999926" width="80" height="46.87499999999993" as="geometry"/>
                </mxCell>
                <mxCell id="7" value="- Telefone Fixo: Number" style="text;strokeColor=none;fillColor=none;html=1;fontSize=10;fontStyle=1;verticalAlign=middle;align=left;" vertex="1" parent="17">
                    <mxGeometry y="75.15999999999985" width="80" height="46.87499999999993" as="geometry"/>
                </mxCell>
                <mxCell id="8" value="- Telefone Fixo: Number" style="text;strokeColor=none;fillColor=none;html=1;fontSize=10;fontStyle=1;verticalAlign=middle;align=left;" vertex="1" parent="17">
                    <mxGeometry y="110.31624999999985" width="80" height="46.87499999999993" as="geometry"/>
                </mxCell>
                <mxCell id="9" value="- imgUrl: String&lt;br&gt;" style="text;strokeColor=none;fillColor=none;html=1;fontSize=10;fontStyle=1;verticalAlign=middle;align=left;" vertex="1" parent="17">
                    <mxGeometry y="139.6131249999999" width="80" height="46.87499999999993" as="geometry"/>
                </mxCell>
                <mxCell id="10" value="- date: Date" style="text;strokeColor=none;fillColor=none;html=1;fontSize=10;fontStyle=1;verticalAlign=middle;align=left;" vertex="1" parent="17">
                    <mxGeometry y="168.9099999999997" width="80" height="46.87499999999993" as="geometry"/>
                </mxCell>
                <mxCell id="11" value="- Email: String" style="text;strokeColor=none;fillColor=none;html=1;fontSize=10;fontStyle=1;verticalAlign=middle;align=left;" vertex="1" parent="17">
                    <mxGeometry y="186.4862499999997" width="80" height="46.87499999999993" as="geometry"/>
                </mxCell>
                <mxCell id="12" value="- CEP: Number" style="text;strokeColor=none;fillColor=none;html=1;fontSize=10;fontStyle=1;verticalAlign=middle;align=left;" vertex="1" parent="17">
                    <mxGeometry y="200.0024999999997" width="80" height="46.87499999999993" as="geometry"/>
                </mxCell>
                <mxCell id="13" value="- Cidade: String" style="text;strokeColor=none;fillColor=none;html=1;fontSize=10;fontStyle=1;verticalAlign=middle;align=left;" vertex="1" parent="17">
                    <mxGeometry y="215.7799999999998" width="80" height="46.87499999999993" as="geometry"/>
                </mxCell>
                <mxCell id="14" value="- Instagram: String" style="text;strokeColor=none;fillColor=none;html=1;fontSize=10;fontStyle=1;verticalAlign=middle;align=left;" vertex="1" parent="17">
                    <mxGeometry y="246.87749999999986" width="80" height="46.87499999999993" as="geometry"/>
                </mxCell>
                <mxCell id="15" value="- Git: String" style="text;strokeColor=none;fillColor=none;html=1;fontSize=10;fontStyle=1;verticalAlign=middle;align=left;" vertex="1" parent="17">
                    <mxGeometry y="233.36499999999978" width="80" height="46.87499999999993" as="geometry"/>
                </mxCell>
                <mxCell id="42" value="" style="endArrow=none;html=1;fontSize=10;" edge="1" parent="17">
                    <mxGeometry width="50" height="50" relative="1" as="geometry">
                        <mxPoint y="290" as="sourcePoint"/>
                        <mxPoint x="190" y="290" as="targetPoint"/>
                    </mxGeometry>
                </mxCell>
                <mxCell id="43" value="+CalcAge()" style="text;strokeColor=none;fillColor=none;html=1;fontSize=10;fontStyle=1;verticalAlign=middle;align=left;" vertex="1" parent="17">
                    <mxGeometry y="280.2349999999998" width="80" height="46.87499999999993" as="geometry"/>
                </mxCell>
                <mxCell id="44" value="+formatedCellPhone()" style="text;strokeColor=none;fillColor=none;html=1;fontSize=10;fontStyle=1;verticalAlign=middle;align=left;" vertex="1" parent="17">
                    <mxGeometry y="293.75499999999977" width="80" height="46.87499999999993" as="geometry"/>
                </mxCell>
                <mxCell id="45" value="+dateinPT-BR()" style="text;strokeColor=none;fillColor=none;html=1;fontSize=10;fontStyle=1;verticalAlign=middle;align=left;" vertex="1" parent="17">
                    <mxGeometry y="316.40499999999975" width="80" height="46.87499999999993" as="geometry"/>
                </mxCell>
                <mxCell id="46" value="+formatedFixedPhone()" style="text;strokeColor=none;fillColor=none;html=1;fontSize=10;fontStyle=1;verticalAlign=middle;align=left;" vertex="1" parent="17">
                    <mxGeometry y="303.75499999999977" width="80" height="46.87499999999993" as="geometry"/>
                </mxCell>
                <mxCell id="47" value="+gerateID()" style="text;strokeColor=none;fillColor=none;html=1;fontSize=10;fontStyle=1;verticalAlign=middle;align=left;" vertex="1" parent="17">
                    <mxGeometry y="327.1049999999998" width="80" height="46.87499999999993" as="geometry"/>
                </mxCell>
                <mxCell id="18" value="" style="group" vertex="1" connectable="0" parent="41">
                    <mxGeometry x="370" y="60" width="190" height="175" as="geometry"/>
                </mxCell>
                <mxCell id="19" value="" style="whiteSpace=wrap;html=1;" vertex="1" parent="18">
                    <mxGeometry width="190" height="175.00000000000003" as="geometry"/>
                </mxCell>
                <mxCell id="20" value="" style="endArrow=none;html=1;exitX=-0.002;exitY=0.137;exitDx=0;exitDy=0;exitPerimeter=0;" edge="1" parent="18" source="19">
                    <mxGeometry width="50" height="50" relative="1" as="geometry">
                        <mxPoint x="170" y="27.343750000000004" as="sourcePoint"/>
                        <mxPoint x="190" y="21.875000000000004" as="targetPoint"/>
                    </mxGeometry>
                </mxCell>
                <mxCell id="21" value="ContatoLista" style="text;strokeColor=none;fillColor=none;html=1;fontSize=24;fontStyle=1;verticalAlign=middle;align=center;" vertex="1" parent="18">
                    <mxGeometry x="45" width="100" height="21.875000000000004" as="geometry"/>
                </mxCell>
                <mxCell id="22" value="-idade: Number" style="text;strokeColor=none;fillColor=none;html=1;fontSize=10;fontStyle=1;verticalAlign=middle;align=left;" vertex="1" parent="18">
                    <mxGeometry y="27.343750000000004" width="80" height="21.875000000000004" as="geometry"/>
                </mxCell>
                <mxCell id="23" value="-Signo: String" style="text;strokeColor=none;fillColor=none;html=1;fontSize=10;fontStyle=1;verticalAlign=middle;align=left;" vertex="1" parent="18">
                    <mxGeometry y="43.75000000000001" width="80" height="21.875000000000004" as="geometry"/>
                </mxCell>
                <mxCell id="38" value="+favorite()" style="text;strokeColor=none;fillColor=none;html=1;fontSize=10;fontStyle=1;verticalAlign=middle;align=left;" vertex="1" parent="18">
                    <mxGeometry y="80" width="80" height="21.875000000000004" as="geometry"/>
                </mxCell>
                <mxCell id="39" value="+deletBtn()" style="text;strokeColor=none;fillColor=none;html=1;fontSize=10;fontStyle=1;verticalAlign=middle;align=left;" vertex="1" parent="18">
                    <mxGeometry y="101.88" width="80" height="21.875000000000004" as="geometry"/>
                </mxCell>
                <mxCell id="40" value="+editBtn()" style="text;strokeColor=none;fillColor=none;html=1;fontSize=10;fontStyle=1;verticalAlign=middle;align=left;" vertex="1" parent="18">
                    <mxGeometry y="123.75999999999999" width="80" height="21.875000000000004" as="geometry"/>
                </mxCell>
                <mxCell id="34" value="" style="endArrow=none;html=1;fontSize=10;exitX=1;exitY=0.5;exitDx=0;exitDy=0;entryX=0;entryY=0.5;entryDx=0;entryDy=0;" edge="1" parent="41" source="2" target="33">
                    <mxGeometry width="50" height="50" relative="1" as="geometry">
                        <mxPoint x="190" y="155" as="sourcePoint"/>
                        <mxPoint x="370" y="155.78125" as="targetPoint"/>
                    </mxGeometry>
                </mxCell>
                <mxCell id="33" value="" style="rhombus;whiteSpace=wrap;html=1;fontSize=10;" vertex="1" parent="41">
                    <mxGeometry x="350" y="145.78" width="20" height="20" as="geometry"/>
                </mxCell>
                <mxCell id="35" value="(0, *)" style="text;strokeColor=none;fillColor=none;html=1;fontSize=24;fontStyle=1;verticalAlign=middle;align=center;" vertex="1" parent="41">
                    <mxGeometry x="190" y="115.78" width="50" height="30" as="geometry"/>
                </mxCell>
                <mxCell id="36" value="(1)" style="text;strokeColor=none;fillColor=none;html=1;fontSize=24;fontStyle=1;verticalAlign=middle;align=center;" vertex="1" parent="41">
                    <mxGeometry x="320" y="115.78" width="50" height="30" as="geometry"/>
                </mxCell>
                <mxCell id="37" value="" style="endArrow=none;html=1;fontSize=10;exitX=1;exitY=0.75;exitDx=0;exitDy=0;entryX=1.003;entryY=0.454;entryDx=0;entryDy=0;entryPerimeter=0;" edge="1" parent="41" source="36" target="19">
                    <mxGeometry width="50" height="50" relative="1" as="geometry">
                        <mxPoint x="400" y="210" as="sourcePoint"/>
                        <mxPoint x="450" y="160" as="targetPoint"/>
                    </mxGeometry>
                </mxCell>
            </root>
        </mxGraphModel>
    </diagram>
</mxfile>